<svg width="13" height="15" viewBox="0 0 13 15" fill="none" xmlns="http://www.w3.org/2000/svg">
<path d="M0.795162 11.5859L4.21574 0.920998L8.55787 2.31366C9.1419 2.50098 9.62283 2.81766 10.0007 3.26369C10.3785 3.70973 10.6247 4.22557 10.7393 4.81123C10.8606 5.39343 10.826 5.98162 10.6354 6.57581C10.4888 7.03288 10.2758 7.43504 9.99643 7.7823C9.71866 8.12448 9.38871 8.40231 9.00658 8.61581C8.63116 8.82586 8.22368 8.96121 7.78416 9.02187L8.91571 14.1904L6.27996 13.345L5.20188 8.42889L4.40963 8.17479L3.08049 12.3189L0.795162 11.5859ZM5.14261 5.88946L6.92517 6.46119C7.12831 6.52634 7.32997 6.53501 7.53013 6.48719C7.73193 6.43429 7.9113 6.3378 8.06826 6.1977C8.22521 6.05761 8.33707 5.88346 8.40386 5.67524C8.47064 5.46702 8.48094 5.26029 8.43475 5.05504C8.38856 4.84979 8.29795 4.66951 8.16294 4.51419C8.02956 4.35379 7.86129 4.24101 7.65815 4.17585L5.87559 3.60413L5.14261 5.88946Z" fill="white"/>
</svg>
